# xmcd
#
# Track frame offsets:
#       150
#       13923
#       34392
#       53780
#
# Disc length: 1001 seconds
#
# Revision: 0
# Processed by: cddbd v1.5.1PL0 Copyright (c) Steve Scherf et al.
# Submitted via: CD-DA_X-Tractor v0.24
#
DISCID=3003e704
DTITLE=Brody Buster - Clearing The Smoke
DYEAR=1900
DGENRE=
TTITLE0=Hot Little Mama
TTITLE1=One Ton Woman
TTITLE2=Low Rider
TTITLE3=Amazing Grace
EXTD=
EXTT0=
EXTT1=
EXTT2=
EXTT3=
PLAYORDER=
